<svg width="498" height="494" viewBox="0 0 498 494" fill="none" xmlns="http://www.w3.org/2000/svg">
<path d="M312.204 56.1934C400.967 85.6102 465 169.286 465 267.918C465 391.077 365.159 490.918 242 490.918C118.841 490.918 19 391.077 19 267.918C19.0002 170.822 81.0543 88.2205 167.667 57.6074V78.959C92.3241 108.621 39.0002 182.042 39 267.918C39 380.032 129.886 470.918 242 470.918C354.114 470.918 445 380.032 445 267.918C445 180.482 389.72 105.957 312.204 77.3857V56.1934Z" fill="#7100A1"/>
<path d="M312.204 107.77C373.799 134.81 416.82 196.339 416.82 267.919L416.807 270.178C415.749 353.701 356.118 423.106 277.102 439.212V418.741C345.697 402.84 396.82 341.351 396.82 267.919C396.82 205.971 360.437 152.522 307.874 127.772L312.204 122.061V107.77ZM167.667 122.879L173.033 129.27C122.141 154.634 87.1787 207.193 87.1787 267.919C87.1789 340.858 137.62 402.014 205.521 418.414V438.926C127.19 422.298 68.245 353.215 67.1934 270.178L67.1787 267.919C67.1787 197.949 108.286 137.581 167.667 109.645V122.879Z" fill="#3C0056"/>
<path d="M232.571 59.9627L304 2V113.367L253.176 159.607V439H232.571V59.9627Z" fill="black"/>
<path d="M250.429 60.7007L179 2.65127V114.184L229.824 160.493V439H250.429V60.7007Z" fill="black"/>
</svg>
